# xmcd
#
# Track frame offsets: 
#        150
#        30437
#        54255
#        73145
#        92393
#        111467
#
# Disc length: 1742 seconds
#
# Revision: 0
# Processed by: cddbd v1.5.2PL0 Copyright (c) Steve Scherf et al.
# Submitted via: ExactAudioCopyFreeDBPlugin 1.0
#
DISCID=4606cc06
DTITLE=Carpenter Brut - Trilogy †
DYEAR=2017
DGENRE=Blues
TTITLE0=Escape From Midwich Valley
TTITLE1=Disco Zombi Italia
TTITLE2=L.A. Venice Bitch 80's
TTITLE3=Wake Up The President
TTITLE4=347 Midnight Demons
TTITLE5=Le Perv
EXTD=
EXTT0=
EXTT1=
EXTT2=
EXTT3=
EXTT4=
EXTT5=
PLAYORDER=
